<?xml version="1.0" encoding="utf-8"?>
<!-- Generator: Adobe Illustrator 21.1.0, SVG Export Plug-In . SVG Version: 6.00 Build 0)  -->
<svg version="1.1" id="Layer_1" xmlns="http://www.w3.org/2000/svg" xmlns:xlink="http://www.w3.org/1999/xlink" x="0px" y="0px"
	 viewBox="0 0 55 63" style="enable-background:new 0 0 55 63;" xml:space="preserve">
<style type="text/css">
	.st0{fill:#008FD6;}
	.st1{fill:#E01F21;}
	.st2{fill:#003F79;}
	.st3{fill:#FFDE5A;}
	.st4{fill:#FFFFFF;}
</style>
<rect class="st0" width="55" height="63"/>
<g>
	<path class="st1" d="M34.4,43.4l-0.2-0.5l0,0c0-0.3-0.1-0.5-0.3-0.5l0,0h0c-1.3-0.5-6.4,3.6-3.8,3.9c0,0,0.1,0,0.2,0l0,0l0,0
		l0.9-0.4l0.2-0.1l0,0.1l-0.1,0l-0.1,0.1l0.7,0.3l0.2-0.1L31.9,46l-0.2-0.1l0.1-0.1l0.3,0.2l0.1,0l0.2-0.4l0.4-0.3l0.4,0.1l0-0.2
		l0,0l0,0L33,45.1l0.1-0.1l0.5,0.1l0.1-0.3l0,0l0,0l-0.3-0.1l0,0l0-0.1l0.8-0.1l0-0.1l-0.1,0l0.2,0l0-0.3l-0.2,0l0-0.1l0.1-0.1
		l0.1,0.1l0.1-0.1v0l0.3-0.2L34.4,43.4L34.4,43.4z"/>
	<path class="st2" d="M31.4,37.5l0.1-0.1l0-0.1l-0.1-0.2l-0.5-0.3v-0.1l-1-0.2l-0.2,0.1l0.6-0.4l0.4-0.3l-0.2-0.7l-0.2,0l0,0l0,0
		l-0.3,0l0,0v0l0.3-0.1l0,0v0l0.1,0l-0.1-0.1l0,0h0l-0.1-0.1l-0.3,0.1l-0.1,0l0,0l0,0l0.3-0.3l-0.2-0.1l-0.1,0.1L29.6,35l0-0.1
		l0.3-0.2l-0.2-0.3l-0.1,0l-0.3,0.1l0,0l0.1-0.2l-0.3-0.1l-0.3,0.3l0,0l-0.2,0.3l-0.8,0.6L27,36l-0.2-0.2l0.2,0.1l0.1-0.3l0,0l0-0.1
		l0.1-0.2l-0.4-0.1l-0.1,0.2l-0.1,0l-0.1,0l0-0.2l-0.6,0.1h0v-0.2l0,0l0.1,0v0l0.3-0.1l0-0.2l-0.2,0l-0.3-0.1l0-0.1l0.4-0.2L26,33.9
		L25.7,34l-0.1,0l-0.1-0.3l-0.4,0V34L25,34l-0.3-0.1l-0.1,0l0,0l0,0l0,0l0,0.1l-0.1,0l-0.1-0.1l-0.1,0l0.7-0.4l-0.4-0.2l0.1-0.1
		l-0.3-0.1l0,0l-0.1,0l-0.7,0.3l-0.4,0l0-0.1l0.2-0.2l0-0.1L22.9,33l-0.8,0.2l0-0.1l0.3-0.2l0.2-0.1l0.4-0.2l-0.1-0.1l0-0.1
		l-0.4-0.2l-0.1-0.1l0.4-0.5l-0.6-0.4c0,0-0.2,0.2-0.5,0.3l-0.2,0.1l-0.8,0.4l-0.1,0l0-0.1v0h0l0-0.1l-0.3,0.1l0-0.1L20.1,32
		L20.1,32L20,31.9l0,0l-0.1-0.1l-1.2,1L18.5,33l0,0l-1.4,0.8l-0.2,0.1l-0.1-0.2l-1.1,0.8l0,0l-0.3,0.2l0.1,0.1l-0.6,0.4l0.1,0.1
		l-0.6,0.1l0,0.1l0,0l0,0l0,0.1l0.1,0l0.1,0l0,0.1l-0.4,0l0,0l0,0L14.2,36l0,0l0,0l-0.1,0.1l-0.4-0.1l0,0.2l0,0l0,0l0,0l0,0l0.1,0
		l-0.1,0l-0.6,0.2l0,0.3l0,0v0l0.2,0.1l0,0L13,37l0,0.2l0.1,0l-0.4,0.2l0,0h0l0,0.2l0,0.1l-0.4,0L12.3,38l0,0.1h0l0.3,0.1l0.2,0.1
		l-0.3,0.1v0.3l0.1,0l0.2,0.1l0,0.1l0.4,0v0l0.2,0l-0.2,0.5l0,0l0,0L13,39.8l0,0l0.1,0.3l0.1,0l0,0l0.3,0.1l0.3,0v0L13,40.6l0,0.2
		l0,0v0l0,0l0,0h0l0,0l0.2,0l0.1,0L13.2,41l0,0.1h0l0.1,0.2l0.1-0.1l0,0l0.5,0.3l0.4,0.1l0.2-0.2l0.1,0l-0.1,0.2l0,0.1l-0.1,0.1
		l0.2,0.1l0.1-0.2l1.3,0.9l0.2,0l0.4-0.2l0.1-0.1l0.3,0l0-0.1l-0.2,0l0,0l0-0.1l0.3,0l0.1-0.2l0.3-0.3l0,0h0.2l0.3-0.3l0,0h0l0-0.2
		h-0.4l0,0l0-0.1l0.3,0l0.2,0l0-0.2l0.6-0.2l0.1-0.2l0.3,0l0,0.3l0.3,0.1h0.4l0.4,0l0,0.1l-0.2,0.1l-0.2,0l0,0.1l0.1,0.1l0.2,0.1
		l0.2,0.4l0.2-0.1l0.5,0.1l0.3,0.1L21.3,42l-0.3,0.1L21,42.2l0.2,0l-0.1,0.2l-0.3,0.1l-0.1,0.1l0.1,0.1L20.5,43l-0.2,0.3l0.5,0.2
		h1.6l0.4-0.1l0-0.1l0.5-0.1l0.7-0.1l0.1,0.2l0,0v0l0,0l0.1,0l0,0.1l0,0.1l0.2,0l0.3-0.1l0.2,0l0.1-0.1l0.5-0.2l0-0.1l0,0l-0.1,0
		l0,0l0.3-0.2l0.1,0l0-0.1l-0.1,0l0-0.1l0.2,0l0.2-0.1l0.1-0.2l-0.1-0.2l0.2-0.1l0.2-0.4l0.2-0.1l0.3,0.2l0.6,0.1l0.7-0.1l0-0.1
		l0.1-0.1l0.6-0.1l0.5-0.1l0.1-0.2l0-0.1l0.1,0l0.1-0.1l-0.1-0.2l0.1-0.1l0,0.1l0.3-0.2v-0.1l-0.3-0.2l-0.4,0.1l0,0l0.1-0.1l0.5,0
		l0,0l0,0l0.1,0l0,0l0,0l0.3-0.1l0-0.3l-0.5,0l0,0l0.3-0.1l0.3-0.1l0-0.1l-0.1-0.2l0-0.1l-0.1-0.1l-0.1-0.1l0,0l0.3,0l0.1,0l0.2-0.3
		l0.3-0.4L31,38.3l0,0l0.2,0l0.3-0.1l0.1-0.1l0-0.2L31.4,37.5"/>
	<path class="st3" d="M39.9,11.6l0.3-0.1l1.2,0.5l0.3,0.9l-0.1,0.4l-0.5,0.3l0.4,0.4l-0.1,0.1l-1.1-0.5l-0.3-0.3v-0.2l0.1,0
		l-0.4-0.7l0.1-0.2l0.1,0 M37,16l0.3,0l0.7-0.9l0.2,0.1l0.1-0.1L38,14.3l-0.6,0.1L37,14.7l-0.1,0.3h-0.1v-0.1l-0.1,0l0,0.1l-0.4,0
		l0,0.2l0.3,0l0,0.1l-0.6,0l0,0.2l-0.2,0.2l0,0.3h-0.2l-0.1,0.3l-0.1,0.1l0.3,0.5l0.6-0.3l0.7-0.2 M33.7,18.3l0.2,0.2l-0.6,0.4
		l0,0.1l-1.3,1.3l0.1,0.1l0.1,0l0.3,0.2l-0.8,1.3l-0.2,0l-0.2,0.6l-0.2,0l0,0.1L31,22.7l0,0.1l-0.4,0.3l0.1,0.1L30,24L29.7,24l0,0.1
		h0.1l-0.6,0.7L29.1,25l-0.3,0.4l-0.1,0l-0.1,0.3l0.1,0.2l0.2-0.4l0.2-0.1l0.4-0.5l0-0.1l0.5-0.5l0.1-0.2l2.1-1.8l0.1-0.1l0.2,0
		l-0.1,0.1l0.4,0l0.1,0.2L32.1,23l0.1,0.1l0.1,0l0,0.3l-1.1,0.8l0,0.2l-0.6,0.5l0.1,0.1l-0.9,0.8l0.1,0.1l3.1-2.6l0-0.3l0.3,0
		l0.6-0.7l0.2,0l0-0.2l0.2,0.1l0,0.4l-0.1,0.1l0,0.3l-0.8,0.7L33.4,24l-0.3,0L32.3,25l-0.3,0l-0.2,0.3l-0.4,0.3v0.1l0.3,0l0.1-0.2
		l0.9-0.5l1.2-1.2l0.4-0.2l0.3,0.3L34.5,24l0.2,0l0.1,0.1l-0.6,0.7l0.4,0.1l0.8-0.5l0.1-0.2l0.7,0.1l0.3,0.4l3.1-1.9l0-0.1l0.4-0.4
		l0.3,0l0.1-0.4L39.9,22l0,0.1l-0.1,0l-0.2-0.1l-0.1,0.1l0.2,0.1l-0.1,0.1l-0.3,0.2l-0.4-0.1l-0.7,0.6l-1.5,0.5l-0.2-0.2l-0.1,0
		l-0.4-0.6l0.1-0.1l0.2,0.1l-0.2-0.1l0.5-0.1l-0.2-0.1l0.6-0.1l0.9-0.5l0.4-0.4l-0.1-0.1l0.2-0.2L39,21l-0.2-0.1l0.4-0.3l0.2-0.7
		l0.3-0.1l0.4-0.6l0.6-0.5l0.2,0.2l-0.3,0.3l0.2,0.2l0,0.3l-0.2,0.1l0.1,0.2l0.3,0.2v0.2l-0.1,0l0.1,0.1l-0.1,0.1l-0.3,0l0,0.1
		l0.3,0l-0.1,0.1l-0.3,0l0,0.1l0.5,0l0.3,0.1l-0.1,0.1l0.3,0v1.1l-0.2,0.4l-0.4,0l0.1,0.2l-0.9,0.7l-0.2,0.7l-0.5,0.5l0.4,0.3
		l0.3,0.2l0.1,1.2l0.6,0.2l0,0.4l-0.3,0.4L40,27.7l0.1,0.2L39.6,28l-0.1,0.3l-0.7,0.3l-0.1,0.2l-0.6,0.3L38,29l-0.1,0.1l-0.2,0.3
		l-0.6,0l0,0.2l-0.2,0l0,0.2L36.6,30l0.1,0.2l0.5-0.2l1.5-0.5l0.2,0.4l-0.1,0.2l-0.4,0.1l-0.1,0.1l0.3,0.1l0,0.1l-0.3,0.2l-0.2,0
		L38,30.7l-0.3,0l-0.2,0.5l-0.2,2.4l-0.4,0.6l0.1,0.2l-0.7,0.3l-1.2,1.4l-0.7,1.3l0.4,0.1L34.5,38l0.3-0.1l0.1,0l0,0.2l0.2,0l0-0.2
		l0.8-0.5l0.1,0.1L35.4,38l0.4,0.1l-0.1,0.4l0.2,0.1l-0.6,0.8l-0.3,0l0.1,0.3l-0.4,0.1l-0.4,0.5l-0.9,0.1L33,40.3l0-1.7l0.1,0
		l0.1-0.6l0.1,0l0.1-0.8l0.2,0l0.1-0.6l0.2,0l0.2-0.9l0.1,0c0,0,0.3-0.5,0.3-0.4c0,0-0.7-0.5-0.7-0.5l-0.6-0.9l0.1-1l-1.2,0
		l-0.3-0.2l-0.1-0.3l-0.3,0l0-0.3l-1.5,0.5l-0.4,0l-0.1-0.2l-0.6,0.2l-0.7,0.4l0,0.2l-1.2,0.3l-0.2-0.2l0-0.1l0-0.2l0.4-1.4
		l-0.6-0.2l-0.1,0.1l-0.2-0.1l0.1-0.3l-1,0.3L25.3,31l0.6-2.1l-0.1-0.1l0.5-1.5l0.7-0.8l0.2,0l0.2-0.5l0.1-1.1l0.3-0.8l0.4-0.4
		l0.2-0.4l0.3,0l-0.1-0.2l0.6-1.1l0.5-0.1l0-0.2l0.2,0l0-0.2l0.3,0l0-0.2l0.4-0.2l0-0.2l0.7-0.7l-0.1-0.1l0.1-0.2l0.1,0l0.2-0.3
		l0.8-0.6l0.1,0.1l0-0.2l0.1-0.1l0.1,0.1l0.2-0.4l0.5-0.1l0-0.1L33.7,18.3"/>
	<path class="st4" d="M20.9,15.6h1.2V9.7h-1.2 M25.8,12.9c0.6,0,0.8-0.2,0.8-1.2c0-0.8-0.3-1-0.9-1h-0.7v2.2H25.8z M25.1,14v1.6
		h-1.2V9.7h2c1.3,0,2,0.6,2,2.1c0,1.6-0.8,2.2-2,2.2L25.1,14L25.1,14z M10.5,12.9V15h1.3c0.8,0,1.1-0.4,1.1-1.1c0-0.7-0.4-1-1.1-1
		H10.5L10.5,12.9z M10.5,10.3v2h1.3c0.7,0,1-0.4,1-1.1c0-0.7-0.3-0.9-1-0.9L10.5,10.3L10.5,10.3z M11.8,9.8c1,0,1.7,0.4,1.7,1.5
		c0,0.8-0.3,1.1-0.7,1.3c0.7,0.2,0.9,0.7,0.9,1.4c0,1.2-0.6,1.7-1.8,1.7h-2V9.8L11.8,9.8L11.8,9.8z M17.9,14.9
		c0.6-0.3,0.7-1,0.7-2.3c0-1.7-0.2-2.4-1.5-2.4c-0.3,0-0.5,0-0.7,0.1c-0.6,0.3-0.7,1-0.7,2.2c0,1.7,0.2,2.5,1.5,2.5
		C17.4,15.1,17.7,15,17.9,14.9 M15,12.6c0-1.4,0.2-2.2,0.8-2.6c0.3-0.2,0.7-0.3,1.3-0.3c1.7,0,2.1,0.9,2.1,2.9
		c0,1.4-0.2,2.4-0.9,2.8c-0.3,0.2-0.7,0.3-1.2,0.3C15.4,15.7,15,14.7,15,12.6"/>
</g>
</svg>
